<svg xmlns="http://www.w3.org/2000/svg" viewBox="0 0 100 100" width="100" height="100">
  <style>
    tspan { white-space:pre }
    .shp0 { fill: #f6f5bc }
  </style>
  <g id="Layer">
    <path id="Layer" class="shp0"
          d="M15.61 20.87C15.57 20.82 15.52 20.8 15.47 20.8C15.41 20.8 15.36 20.82 15.32 20.87C15.08 21.8 14.41 22.04 14.41 22.04C14.36 22.1 14.35 22.16 14.35 22.23C14.35 22.31 14.36 22.36 14.41 22.42C15.13 22.72 15.32 23.59 15.32 23.59C15.36 23.64 15.41 23.66 15.47 23.66C15.52 23.66 15.57 23.64 15.61 23.59C15.85 22.66 16.52 22.42 16.52 22.42C16.57 22.36 16.58 22.31 16.58 22.23C16.58 22.16 16.57 22.1 16.52 22.04C15.79 21.72 15.61 20.87 15.61 20.87ZM7.49 52.35C7.44 52.29 7.4 52.27 7.34 52.27C7.28 52.27 7.24 52.29 7.19 52.35C6.96 53.27 6.28 53.52 6.28 53.52C6.24 53.57 6.22 53.63 6.22 53.71C6.22 53.78 6.24 53.84 6.28 53.89C7 54.2 7.19 55.06 7.19 55.06C7.24 55.12 7.28 55.14 7.34 55.14C7.4 55.14 7.44 55.12 7.49 55.06C7.72 54.14 8.4 53.9 8.4 53.9C8.44 53.84 8.45 53.78 8.45 53.71C8.45 53.63 8.44 53.57 8.4 53.52C7.66 53.2 7.49 52.35 7.49 52.35ZM13.17 24.17C13.15 24.13 13.12 24.12 13.09 24.12C13.06 24.12 13.03 24.13 13 24.17C12.85 24.76 12.44 24.89 12.44 24.89C12.41 24.93 12.4 24.96 12.4 25C12.4 25.04 12.41 25.08 12.44 25.11C12.9 25.3 13 25.83 13 25.83C13.03 25.87 13.06 25.89 13.09 25.89C13.12 25.89 13.15 25.87 13.17 25.83C13.32 25.25 13.73 25.11 13.73 25.11C13.76 25.08 13.78 25.04 13.78 25C13.78 24.96 13.76 24.93 13.73 24.89C13.29 24.72 13.17 24.17 13.17 24.17ZM79.76 43.13C79.71 43.08 79.67 43.06 79.61 43.06C79.55 43.06 79.51 43.08 79.46 43.13C79.23 44.06 78.55 44.3 78.55 44.3C78.51 44.36 78.5 44.41 78.5 44.49C78.5 44.57 78.51 44.62 78.55 44.68C79.27 44.98 79.46 45.85 79.46 45.85C79.51 45.9 79.55 45.92 79.61 45.92C79.67 45.92 79.71 45.9 79.76 45.85C79.99 44.92 80.67 44.68 80.67 44.68C80.71 44.62 80.73 44.57 80.73 44.49C80.73 44.42 80.71 44.36 80.67 44.3C79.93 43.98 79.76 43.13 79.76 43.13ZM99.93 94.24C99.21 93.94 99.02 93.07 99.02 93.07C98.98 93.01 98.93 92.99 98.87 92.99C98.81 92.99 98.77 93.01 98.73 93.07C98.49 93.99 97.82 94.24 97.82 94.24C97.77 94.29 97.76 94.35 97.76 94.43C97.76 94.5 97.77 94.56 97.81 94.62C98.53 94.92 98.72 95.78 98.72 95.78C98.77 95.84 98.81 95.86 98.87 95.86C98.93 95.86 98.97 95.84 99.02 95.78C99.25 94.86 99.93 94.62 99.93 94.62C99.97 94.56 99.99 94.5 99.99 94.43C99.99 94.35 99.97 94.28 99.93 94.24ZM70.99 96.32C70.95 96.27 70.91 96.25 70.85 96.25C70.79 96.25 70.74 96.27 70.7 96.32C70.47 97.25 69.79 97.49 69.79 97.49C69.75 97.55 69.73 97.6 69.73 97.68C69.73 97.76 69.75 97.81 69.79 97.87C70.51 98.17 70.7 99.04 70.7 99.04C70.74 99.09 70.79 99.11 70.85 99.11C70.91 99.11 70.95 99.09 70.99 99.04C71.23 98.11 71.9 97.87 71.9 97.87C71.95 97.81 71.96 97.76 71.96 97.68C71.96 97.61 71.95 97.55 71.9 97.49C71.17 97.17 70.99 96.32 70.99 96.32ZM84.38 47.36C84.34 47.3 84.29 47.28 84.23 47.28C84.18 47.28 84.13 47.3 84.09 47.36C83.85 48.28 83.18 48.53 83.18 48.53C83.13 48.58 83.12 48.64 83.12 48.71C83.12 48.79 83.13 48.85 83.18 48.9C83.9 49.2 84.09 50.07 84.09 50.07C84.13 50.13 84.17 50.15 84.23 50.15C84.29 50.15 84.34 50.13 84.38 50.07C84.62 49.15 85.29 48.9 85.29 48.9C85.33 48.85 85.35 48.79 85.35 48.71C85.35 48.64 85.34 48.58 85.29 48.53C84.56 48.22 84.38 47.36 84.38 47.36ZM93.86 0.39C93.82 0.33 93.77 0.31 93.72 0.31C93.66 0.31 93.61 0.33 93.57 0.39C93.33 1.31 92.66 1.56 92.66 1.56C92.61 1.61 92.6 1.67 92.6 1.74C92.6 1.82 92.61 1.88 92.66 1.93C93.38 2.23 93.57 3.1 93.57 3.1C93.61 3.16 93.66 3.18 93.72 3.18C93.77 3.18 93.82 3.16 93.86 3.1C94.1 2.18 94.77 1.93 94.77 1.93C94.82 1.88 94.83 1.82 94.83 1.74C94.83 1.67 94.82 1.61 94.77 1.56C94.04 1.24 93.86 0.39 93.86 0.39ZM1.26 8.13C1.22 8.07 1.17 8.05 1.11 8.05C1.05 8.05 1.01 8.07 0.97 8.13C0.73 9.05 0.07 9.28 0.07 9.28C0.03 9.33 0.01 9.39 0.01 9.47C0.01 9.54 0.03 9.6 0.07 9.65C0.79 9.96 0.98 10.82 0.98 10.82C1.02 10.88 1.07 10.9 1.13 10.9C1.19 10.9 1.23 10.88 1.27 10.82C1.51 9.9 2.18 9.65 2.18 9.65C2.23 9.6 2.24 9.54 2.24 9.47C2.24 9.39 2.23 9.33 2.18 9.28C1.44 8.98 1.26 8.13 1.26 8.13L1.26 8.13Z"/>
  </g>
</svg>
